<svg width="112" height="112" viewBox="0 0 112 112" fill="none" xmlns="http://www.w3.org/2000/svg">
<g clip-path="url(#clip0_606_3377)">
<g filter="url(#filter0_d_606_3377)">
<path d="M75 20H35C26.7157 20 20 26.7157 20 35V75C20 83.2843 26.7157 90 35 90H75C83.2843 90 90 83.2843 90 75V35C90 26.7157 83.2843 20 75 20Z" fill="url(#paint0_linear_606_3377)"/>
<path d="M39.9696 34.2H34.2238V35.6237H36.3289V42H37.8645V35.6237H39.9696V34.2ZM42.0633 35.3593H42.5616C42.8667 35.3593 43.6497 35.1458 43.6497 34.1797C43.6497 33.1627 42.826 33.1627 42.6429 33.1627H41.9616V34.139H42.5819V34.4136C42.5819 34.8712 42.2463 34.9729 42.0633 34.9729V35.3593ZM42.2768 42.1525C43.5175 42.1525 44.1887 41.3797 44.4226 40.922H44.4938V42H46.0497V36.0814H44.4938V37.1593H44.4226C44.1887 36.7017 43.5175 35.9186 42.2667 35.9186C40.5684 35.9186 39.4701 37.2508 39.4701 39.0407C39.4701 40.861 40.5989 42.1525 42.2768 42.1525ZM42.7548 40.8102C41.6362 40.8102 41.0158 40.0169 41.0158 39.0305C41.0158 38.0542 41.6362 37.261 42.7548 37.261C43.8531 37.261 44.4938 38.0542 44.4938 39.0305C44.4938 40.0169 43.8531 40.8102 42.7548 40.8102ZM47.9308 35.3492C47.3105 35.3492 47.0359 34.861 47.0359 34.4542C47.0359 34.0373 47.3105 33.5593 47.9207 33.5593C48.5512 33.5593 48.8156 34.0373 48.8156 34.4542C48.8156 34.861 48.5512 35.3492 47.9308 35.3492ZM47.1478 42H48.7037V36.0814H47.1478V42ZM58.0204 42H59.5662L56.6476 34.2H55.0713L52.1526 42H53.6882L54.3594 40.1593H57.3493L58.0204 42ZM54.7764 38.9797L55.834 36.0712H55.8543L56.912 38.9797H54.7764ZM60.2359 44.2881H61.7918V40.922H61.863C62.0969 41.3797 62.7681 42.1525 64.0088 42.1525C65.6867 42.1525 66.8155 40.861 66.8155 39.0407C66.8155 37.2508 65.7172 35.9186 64.0189 35.9186C62.7681 35.9186 62.0969 36.7017 61.863 37.1593H61.7918V36.0814H60.2359V44.2881ZM63.5308 40.8102C62.4325 40.8102 61.7918 40.0169 61.7918 39.0305C61.7918 38.0542 62.4325 37.261 63.5308 37.261C64.6494 37.261 65.2799 38.0542 65.2799 39.0305C65.2799 40.0169 64.6494 40.8102 63.5308 40.8102ZM67.6187 44.2881H69.1746V40.922H69.2458C69.4797 41.3797 70.1509 42.1525 71.3916 42.1525C73.0695 42.1525 74.1984 40.861 74.1984 39.0407C74.1984 37.2508 73.1 35.9186 71.4017 35.9186C70.1509 35.9186 69.4797 36.7017 69.2458 37.1593H69.1746V36.0814H67.6187V44.2881ZM70.9136 40.8102C69.8153 40.8102 69.1746 40.0169 69.1746 39.0305C69.1746 38.0542 69.8153 37.261 70.9136 37.261C72.0323 37.261 72.6628 38.0542 72.6628 39.0305C72.6628 40.0169 72.0323 40.8102 70.9136 40.8102ZM34.4781 56H36.0238V52.6644C36.0238 51.6576 36.6747 51.2407 37.3459 51.2407C38.0069 51.2407 38.6476 51.6576 38.6476 52.6644V56H40.2137V52.461C40.2137 51.3119 39.6848 49.9288 38.0476 49.9288C36.6543 49.9288 36.1255 50.9051 36.0543 51.0576H36.0035V50.0814H34.4781V56ZM44.4832 58.4203C47.5849 58.4203 47.5849 55.9085 47.5849 55.278V50.0814H46.0289V51.0881H45.9679C45.7442 50.6814 45.0628 49.9186 43.7917 49.9186C42.1442 49.9186 41.0052 51.1898 41.0052 52.9288C41.0052 54.6475 42.1035 55.939 43.7917 55.939C45.0628 55.939 45.7442 55.1966 45.9679 54.7898H46.0289V55.2983C46.0289 55.8373 46.0289 57.0881 44.1883 57.0881C43.69 57.0881 43.3544 56.9864 43.1103 56.8237V58.1661C43.3137 58.278 43.751 58.4203 44.4832 58.4203ZM44.2594 54.6678C43.1408 54.6678 42.5103 53.8644 42.5103 52.9288C42.5103 52.0034 43.1408 51.2102 44.2594 51.2102C45.3578 51.2102 45.9984 52.0034 45.9984 52.9288C45.9984 53.8644 45.3578 54.6678 44.2594 54.6678ZM51.1011 56.1525C52.3417 56.1525 53.0129 55.3797 53.2468 54.922H53.318V56H54.8739V50.0814H53.318V51.1593H53.2468C53.0129 50.7017 52.3417 49.9186 51.0909 49.9186C49.3926 49.9186 48.2943 51.2508 48.2943 53.0407C48.2943 54.861 49.4231 56.1525 51.1011 56.1525ZM51.579 54.8102C50.4604 54.8102 49.84 54.0169 49.84 53.0305C49.84 52.0542 50.4604 51.261 51.579 51.261C52.6773 51.261 53.318 52.0542 53.318 53.0305C53.318 54.0169 52.6773 54.8102 51.579 54.8102ZM56.5981 58.2983H58.1133L61.7337 50.0814H60.2082L58.5608 53.8441H58.5303L56.9845 50.0814H55.4692L57.7777 55.5627L56.5981 58.2983Z" fill="white"/>
<path d="M102 68H78C72.4772 68 68 72.4772 68 78V102C68 107.523 72.4772 112 78 112H102C107.523 112 112 107.523 112 102V78C112 72.4772 107.523 68 102 68Z" fill="#FFC40C"/>
<path d="M36.6667 78H47.3334" stroke="white" stroke-width="2" stroke-linecap="round" stroke-linejoin="round"/>
<path d="M42 66V75.3333" stroke="white" stroke-width="2" stroke-linecap="round" stroke-linejoin="round"/>
<path d="M46.6666 70.6665L42 75.3332L37.3333 70.6665" stroke="white" stroke-width="2" stroke-linecap="round" stroke-linejoin="round"/>
</g>
<g clip-path="url(#clip1_606_3377)">
<path d="M105.739 91.2184C105.253 89.327 104.12 87.6462 102.521 86.4438C100.923 85.2414 98.9506 84.5866 96.919 84.5837C92.6585 84.5837 89.0715 87.4144 88.0987 91.2184C87.9254 91.9147 87.8379 92.6281 87.838 93.3439C87.838 94.0584 88.1002 95.3638 88.1002 95.3638H105.364C105.472 95.3636 105.575 95.3281 105.658 95.2633C105.741 95.1985 105.799 95.1083 105.821 95.0078C105.939 94.46 105.999 93.9019 105.998 93.3424C105.999 92.6272 105.912 91.9143 105.739 91.2184ZM92.6823 91.2184C93.0805 90.4693 93.6869 89.8404 94.4346 89.4011C95.1822 88.9618 96.0419 88.7294 96.9187 88.7294C97.7955 88.7294 98.6553 88.9618 99.4029 89.4011C100.151 89.8404 100.757 90.4693 101.155 91.2184H92.6823Z" fill="url(#paint1_linear_606_3377)"/>
<path d="M83.0789 97.8847C80.4516 97.8847 78.3224 95.8419 78.3224 93.3439V78.3653C78.3224 78.2687 78.2825 78.1761 78.2115 78.1077C78.1405 78.0392 78.0442 78.0005 77.9435 78H74.4616C74.4009 77.9999 74.3409 78.0113 74.2848 78.0336C74.2288 78.0558 74.1779 78.0884 74.135 78.1295C74.0922 78.1706 74.0582 78.2194 74.035 78.2732C74.0118 78.3269 73.9999 78.3845 74 78.4426V93.3439C74 98.1104 78.0739 102.001 83.0789 102.001C84.3953 102.002 85.696 101.728 86.8912 101.199C88.0863 100.67 89.1473 99.8983 90.0008 98.9373C88.6516 97.4295 87.8117 93.8074 87.836 93.3439C87.7057 95.8405 85.7078 97.8847 83.0789 97.8847Z" fill="url(#paint2_linear_606_3377)"/>
<path d="M102.961 99.2101L100.578 96.9241C100.488 96.8379 100.37 96.786 100.243 96.7782C100.117 96.7704 99.9922 96.8073 99.8923 96.8818C99.0466 97.5243 97.9986 97.8728 96.9196 97.8701V97.8701C94.2928 97.8701 92.163 95.8439 92.163 93.3439C92.163 88.5773 88.0892 84.7174 83.0841 84.7174C81.4059 84.715 79.7597 85.1577 78.3275 85.9966V93.3439C78.3275 90.8439 80.4578 88.8322 83.0841 88.8322C85.7104 88.8322 87.8411 90.8439 87.8411 93.3439C87.8402 95.3969 88.6084 97.3819 90.0059 98.9373C90.8605 99.8945 91.9213 100.663 93.1153 101.189C94.3093 101.715 95.608 101.987 96.9221 101.986V101.986C99.1379 101.989 101.279 101.217 102.943 99.8137C102.987 99.7763 103.023 99.7305 103.048 99.6793C103.073 99.628 103.087 99.5724 103.088 99.5158C103.09 99.4592 103.08 99.4029 103.058 99.3504C103.036 99.2978 103.003 99.25 102.961 99.2101Z" fill="url(#paint3_linear_606_3377)"/>
</g>
</g>
<defs>
<filter id="filter0_d_606_3377" x="0" y="0" width="132" height="132" filterUnits="userSpaceOnUse" color-interpolation-filters="sRGB">
<feFlood flood-opacity="0" result="BackgroundImageFix"/>
<feColorMatrix in="SourceAlpha" type="matrix" values="0 0 0 0 0 0 0 0 0 0 0 0 0 0 0 0 0 0 127 0" result="hardAlpha"/>
<feOffset/>
<feGaussianBlur stdDeviation="10"/>
<feColorMatrix type="matrix" values="0 0 0 0 0 0 0 0 0 0 0 0 0 0 0 0 0 0 0.1 0"/>
<feBlend mode="normal" in2="BackgroundImageFix" result="effect1_dropShadow_606_3377"/>
<feBlend mode="normal" in="SourceGraphic" in2="effect1_dropShadow_606_3377" result="shape"/>
</filter>
<linearGradient id="paint0_linear_606_3377" x1="55" y1="20" x2="55" y2="90" gradientUnits="userSpaceOnUse">
<stop stop-color="#1A6CEA"/>
<stop offset="1" stop-color="#194F9D"/>
</linearGradient>
<linearGradient id="paint1_linear_606_3377" x1="94.8496" y1="91.2953" x2="91.0613" y2="92.2355" gradientUnits="userSpaceOnUse">
<stop stop-color="#1068B2"/>
<stop offset="0.3" stop-color="#0B59A1"/>
<stop offset="0.8" stop-color="#00387C"/>
</linearGradient>
<linearGradient id="paint2_linear_606_3377" x1="74" y1="90" x2="90.0028" y2="90" gradientUnits="userSpaceOnUse">
<stop offset="0.58" stop-color="#1068B2"/>
<stop offset="1" stop-color="#00387C"/>
</linearGradient>
<linearGradient id="paint3_linear_606_3377" x1="78.3245" y1="93.3512" x2="103.087" y2="93.3512" gradientUnits="userSpaceOnUse">
<stop stop-color="#00387C"/>
<stop offset="0.02" stop-color="#013B80"/>
<stop offset="0.21" stop-color="#0C5CA4"/>
<stop offset="0.31" stop-color="#1068B2"/>
</linearGradient>
<clipPath id="clip0_606_3377">
<rect width="112" height="112" fill="white"/>
</clipPath>
<clipPath id="clip1_606_3377">
<rect width="32" height="24" fill="white" transform="translate(74 78)"/>
</clipPath>
</defs>
</svg>
